<svg width="1440" height="3072" viewBox="0 0 1440 3072" fill="none" xmlns="http://www.w3.org/2000/svg">
<g opacity="0.35">
<g filter="url(#filter0_f_114_8)">
<path fill-rule="evenodd" clip-rule="evenodd" d="M1075.8 2268.1C1137.46 2275.94 1190.08 2307.35 1242.75 2340.35C1299.7 2376.04 1365.86 2405.62 1393.23 2467C1421.82 2531.14 1427.01 2612.31 1390.83 2672.5C1356.15 2730.2 1267.57 2719.76 1215.58 2762.53C1157.68 2810.17 1150.4 2924.15 1075.8 2931.67C1003.32 2938.99 965.269 2844.62 913.911 2792.96C872.079 2750.88 816.892 2716.36 804.139 2658.41C791.796 2602.32 837.698 2552.71 848.631 2496.33C861.929 2427.76 825.608 2343.11 874.883 2293.6C923.703 2244.56 1007.15 2259.38 1075.8 2268.1Z" fill="#009378" fill-opacity="0.47"/>
</g>
<g filter="url(#filter1_f_114_8)">
<path fill-rule="evenodd" clip-rule="evenodd" d="M468.804 2484.43C540.438 2482.14 625.998 2458.4 677.161 2508.59C728.754 2559.2 697.906 2646.29 706.897 2718.01C713.74 2772.58 743.095 2826.73 723.492 2878.12C704.224 2928.63 645.03 2946.66 605.579 2983.62C557.985 3028.22 533.834 3111.76 468.804 3116.77C404.443 3121.73 361.823 3051.22 315.806 3005.95C276.773 2967.55 249.841 2923.01 223.213 2875.16C189.134 2813.93 129.773 2757.66 138.952 2688.19C148.437 2616.41 208.331 2559.68 269.926 2521.63C328.744 2485.3 399.705 2486.65 468.804 2484.43Z" fill="#009378" fill-opacity="0.47"/>
</g>
<g filter="url(#filter2_f_114_8)">
<path fill-rule="evenodd" clip-rule="evenodd" d="M897.433 1347.6C970.019 1340.77 1040.87 1392.7 1083.68 1451.71C1121.66 1504.07 1091.94 1576.92 1109.05 1639.3C1124.87 1696.94 1191.35 1741.08 1179.11 1799.58C1166.85 1858.23 1101.08 1886.61 1050.58 1918.85C1003.15 1949.14 953.498 1984.32 897.433 1979.44C843.026 1974.71 806.044 1926.74 762.5 1893.78C720.034 1861.63 667.336 1838.62 646.589 1789.56C625.033 1738.6 634.532 1680.79 649.943 1627.64C665.786 1573 697.36 1527.16 735.034 1484.54C783.1 1430.15 825.168 1354.41 897.433 1347.6Z" fill="#00A3FF" fill-opacity="0.47"/>
</g>
<g filter="url(#filter3_f_114_8)">
<path fill-rule="evenodd" clip-rule="evenodd" d="M1084.13 821.575C1149.14 824.056 1217.17 799.707 1274.31 830.811C1334.73 863.698 1389.56 922.773 1395.89 991.271C1402.05 1057.77 1329 1102 1305.17 1164.39C1283.28 1221.68 1305.02 1294.12 1263.08 1338.87C1218.88 1386.03 1148.34 1392.72 1084.13 1400.2C1011.98 1408.59 926.337 1432.73 872.124 1384.37C817.658 1335.79 835.168 1247.59 831.327 1174.71C828.472 1120.53 845.036 1071.09 852.784 1017.4C862.729 948.479 829.957 860.867 883.107 815.879C935.557 771.483 1015.47 818.954 1084.13 821.575Z" fill="url(#paint0_linear_114_8)" fill-opacity="0.47"/>
</g>
<g filter="url(#filter4_f_114_8)">
<path fill-rule="evenodd" clip-rule="evenodd" d="M322.133 1588.57C387.145 1591.06 455.168 1566.71 512.31 1597.81C572.73 1630.7 627.558 1689.77 633.894 1758.27C640.045 1824.77 567.003 1869 543.166 1931.39C521.276 1988.68 543.021 2061.12 501.08 2105.87C456.876 2153.03 386.336 2159.72 322.133 2167.2C249.976 2175.59 164.337 2199.73 110.124 2151.37C55.6576 2102.79 73.1683 2014.59 69.3271 1941.71C66.4719 1887.53 83.0355 1838.09 90.7837 1784.4C100.729 1715.48 67.9572 1627.87 121.107 1582.88C173.557 1538.48 253.466 1585.95 322.133 1588.57Z" fill="url(#paint1_linear_114_8)" fill-opacity="0.47"/>
</g>
<g filter="url(#filter5_f_114_8)">
<path fill-rule="evenodd" clip-rule="evenodd" d="M440.879 647.736C377.498 683.766 291.578 665.5 228.312 629.267C172.184 597.122 169.373 518.489 128.161 468.637C90.0773 422.57 11.336 409.619 -1.52522 351.248C-14.4171 292.738 33.8992 239.86 66.7067 189.727C97.523 142.637 128.353 90.1704 181.479 71.6023C233.033 53.5834 286.447 82.139 339.685 94.3173C391.604 106.194 449.105 105.546 488.162 141.757C528.742 179.382 543.811 235.987 551.579 290.777C559.565 347.105 549.595 401.866 532.744 456.203C511.244 525.53 503.98 611.864 440.879 647.736Z" fill="#00A3FF" fill-opacity="0.47"/>
</g>
<g filter="url(#filter6_f_114_8)">
<path fill-rule="evenodd" clip-rule="evenodd" d="M1040.7 629.824C980.398 654.252 928.369 704.381 863.494 699.48C794.9 694.297 720.652 662.94 686.753 603.082C653.843 544.97 702.287 474.653 698.41 407.981C694.85 346.755 645.279 289.624 665.153 231.604C686.098 170.455 747.67 135.389 803.145 102.216C865.492 64.9338 933.673 7.76974 1002.96 29.6038C1072.57 51.5402 1092.81 139.152 1126.24 204.033C1151.08 252.26 1156.28 304.143 1171.26 356.285C1190.48 423.211 1256.33 489.644 1226.34 552.486C1196.74 614.502 1104.39 604.023 1040.7 629.824Z" fill="url(#paint2_linear_114_8)" fill-opacity="0.47"/>
</g>
<g filter="url(#filter7_f_114_8)">
<path fill-rule="evenodd" clip-rule="evenodd" d="M866.529 191.82C806.23 216.248 754.201 266.377 689.326 261.476C620.732 256.293 546.484 224.936 512.585 165.079C479.675 106.967 528.119 36.6487 524.242 -30.0228C520.682 -91.2486 471.111 -148.38 490.985 -206.4C511.93 -267.549 573.502 -302.615 628.977 -335.788C691.324 -373.07 759.505 -430.234 828.79 -408.4C898.4 -386.464 918.643 -298.852 952.068 -233.971C976.913 -185.744 982.108 -133.861 997.087 -81.7192C1016.31 -14.7929 1082.17 51.6404 1052.17 114.483C1022.57 176.498 930.219 166.019 866.529 191.82Z" fill="url(#paint3_linear_114_8)" fill-opacity="0.47"/>
</g>
</g>
<defs>
<filter id="filter0_f_114_8" x="402.049" y="1859" width="1414.28" height="1473.08" filterUnits="userSpaceOnUse" color-interpolation-filters="sRGB">
<feFlood flood-opacity="0" result="BackgroundImageFix"/>
<feBlend mode="normal" in="SourceGraphic" in2="BackgroundImageFix" result="shape"/>
<feGaussianBlur stdDeviation="200" result="effect1_foregroundBlur_114_8"/>
</filter>
<filter id="filter1_f_114_8" x="-262" y="2076.83" width="1392.14" height="1440.19" filterUnits="userSpaceOnUse" color-interpolation-filters="sRGB">
<feFlood flood-opacity="0" result="BackgroundImageFix"/>
<feBlend mode="normal" in="SourceGraphic" in2="BackgroundImageFix" result="shape"/>
<feGaussianBlur stdDeviation="200" result="effect1_foregroundBlur_114_8"/>
</filter>
<filter id="filter2_f_114_8" x="234" y="946.998" width="1346.61" height="1432.9" filterUnits="userSpaceOnUse" color-interpolation-filters="sRGB">
<feFlood flood-opacity="0" result="BackgroundImageFix"/>
<feBlend mode="normal" in="SourceGraphic" in2="BackgroundImageFix" result="shape"/>
<feGaussianBlur stdDeviation="200" result="effect1_foregroundBlur_114_8"/>
</filter>
<filter id="filter3_f_114_8" x="431" y="396.998" width="1365.26" height="1416.68" filterUnits="userSpaceOnUse" color-interpolation-filters="sRGB">
<feFlood flood-opacity="0" result="BackgroundImageFix"/>
<feBlend mode="normal" in="SourceGraphic" in2="BackgroundImageFix" result="shape"/>
<feGaussianBlur stdDeviation="200" result="effect1_foregroundBlur_114_8"/>
</filter>
<filter id="filter4_f_114_8" x="-331" y="1164" width="1365.26" height="1416.68" filterUnits="userSpaceOnUse" color-interpolation-filters="sRGB">
<feFlood flood-opacity="0" result="BackgroundImageFix"/>
<feBlend mode="normal" in="SourceGraphic" in2="BackgroundImageFix" result="shape"/>
<feGaussianBlur stdDeviation="200" result="effect1_foregroundBlur_114_8"/>
</filter>
<filter id="filter5_f_114_8" x="-403.662" y="-334.206" width="1358.04" height="1401.49" filterUnits="userSpaceOnUse" color-interpolation-filters="sRGB">
<feFlood flood-opacity="0" result="BackgroundImageFix"/>
<feBlend mode="normal" in="SourceGraphic" in2="BackgroundImageFix" result="shape"/>
<feGaussianBlur stdDeviation="200" result="effect1_foregroundBlur_114_8"/>
</filter>
<filter id="filter6_f_114_8" x="260.468" y="-375.225" width="1373.58" height="1475.04" filterUnits="userSpaceOnUse" color-interpolation-filters="sRGB">
<feFlood flood-opacity="0" result="BackgroundImageFix"/>
<feBlend mode="normal" in="SourceGraphic" in2="BackgroundImageFix" result="shape"/>
<feGaussianBlur stdDeviation="200" result="effect1_foregroundBlur_114_8"/>
</filter>
<filter id="filter7_f_114_8" x="86.3003" y="-813.229" width="1373.58" height="1475.04" filterUnits="userSpaceOnUse" color-interpolation-filters="sRGB">
<feFlood flood-opacity="0" result="BackgroundImageFix"/>
<feBlend mode="normal" in="SourceGraphic" in2="BackgroundImageFix" result="shape"/>
<feGaussianBlur stdDeviation="200" result="effect1_foregroundBlur_114_8"/>
</filter>
<linearGradient id="paint0_linear_114_8" x1="1113.63" y1="796.998" x2="1113.63" y2="1413.68" gradientUnits="userSpaceOnUse">
<stop offset="0.432292" stop-color="#420048"/>
<stop offset="1" stop-color="#00A3FF"/>
</linearGradient>
<linearGradient id="paint1_linear_114_8" x1="351.63" y1="1564" x2="351.63" y2="2180.68" gradientUnits="userSpaceOnUse">
<stop offset="0.375" stop-color="#00A3FF"/>
<stop offset="0.807292" stop-color="#009378"/>
</linearGradient>
<linearGradient id="paint2_linear_114_8" x1="1023.89" y1="664.344" x2="770.714" y2="102.034" gradientUnits="userSpaceOnUse">
<stop offset="0.432292" stop-color="#00FF38"/>
<stop offset="1" stop-color="#00A3FF"/>
</linearGradient>
<linearGradient id="paint3_linear_114_8" x1="849.723" y1="226.34" x2="596.546" y2="-335.97" gradientUnits="userSpaceOnUse">
<stop offset="0.375" stop-color="#00A3FF"/>
<stop offset="0.807292" stop-color="#009378"/>
</linearGradient>
</defs>
</svg>
